<svg xmlns="http://www.w3.org/2000/svg" width="30.5" height="29.25" viewBox="0 0 30.5 29.25">
  <g id="Icon_feather-shopping-cart" data-name="Icon feather-shopping-cart" transform="translate(1.5 1.5)">
    <path id="Path_199" data-name="Path 199" d="M14.5,31.25A1.25,1.25,0,1,1,13.25,30,1.25,1.25,0,0,1,14.5,31.25Z" transform="translate(-3.25 -6.25)" fill="none" stroke="#e63f07" stroke-linecap="round" stroke-linejoin="round" stroke-width="3"/>
    <path id="Path_200" data-name="Path 200" d="M31,31.25A1.25,1.25,0,1,1,29.75,30,1.25,1.25,0,0,1,31,31.25Z" transform="translate(-6 -6.25)" fill="none" stroke="#e63f07" stroke-linecap="round" stroke-linejoin="round" stroke-width="3"/>
    <path id="Path_201" data-name="Path 201" d="M1.5,1.5h5L9.85,18.237a2.5,2.5,0,0,0,2.5,2.013H24.5A2.5,2.5,0,0,0,27,18.237L29,7.75H7.75" transform="translate(-1.5 -1.5)" fill="none" stroke="#e63f07" stroke-linecap="round" stroke-linejoin="round" stroke-width="3"/>
  </g>
</svg>
